<?xml version="1.0" encoding="UTF-8"?>
<svg width="20px" height="19px" viewBox="0 0 20 19" version="1.1" xmlns="http://www.w3.org/2000/svg" xmlns:xlink="http://www.w3.org/1999/xlink">
    <!-- Generator: sketchtool 46.2 (44496) - http://www.bohemiancoding.com/sketch -->
    <title>1DC5D071-806B-4A55-8B83-96616E2E9AFC</title>
    <desc>Created with sketchtool.</desc>
    <defs></defs>
    <g id="Symbols" stroke="none" stroke-width="1" fill="none" fill-rule="evenodd">
        <g id="card2" transform="translate(-221.000000, -45.000000)" stroke="#000000">
            <g id="Group-4-Copy-6">
                <path d="M239.975572,52.4574231 C239.914331,52.2729975 239.756126,52.1416258 239.562198,52.1138356 L233.963789,51.3079209 L231.458028,46.2829544 C231.371271,46.1111606 231.195204,46 231.001276,46 C230.804796,46 230.628729,46.1111606 230.541972,46.2829544 L228.038763,51.3079209 L222.437802,52.1138356 C222.243874,52.1416258 222.085669,52.2729975 222.024428,52.4574231 C221.965739,52.6393223 222.014221,52.8414326 222.154564,52.9753307 L226.206649,56.8861644 L225.249765,62.4088275 C225.216593,62.5983058 225.295696,62.7903106 225.4539,62.9039976 C225.612105,63.0151583 225.818792,63.0303165 225.989755,62.9418933 L231.001276,60.3346708 L236.010245,62.9418933 C236.084244,62.979789 236.165898,63 236.247552,63 C236.352171,63 236.459342,62.9671571 236.5461,62.9039976 C236.704304,62.7903106 236.783407,62.5983058 236.750235,62.4088275 L235.793351,56.8861644 L239.845436,52.9753307 C239.985779,52.8414326 240.034261,52.6393223 239.975572,52.4574231 L239.975572,52.4574231 Z" id="Fill-265"></path>
            </g>
        </g>
    </g>
</svg>